<?xml version="1.0" encoding="UTF-8"?>
<!DOCTYPE svg PUBLIC "-//W3C//DTD SVG 1.1//EN" "http://www.w3.org/Graphics/SVG/1.1/DTD/svg11.dtd">
<svg xmlns="http://www.w3.org/2000/svg" version="1.1" width="323px" height="85px" style="shape-rendering:geometricPrecision; text-rendering:geometricPrecision; image-rendering:optimizeQuality; fill-rule:evenodd; clip-rule:evenodd" xmlns:xlink="http://www.w3.org/1999/xlink">
<g><path style="opacity:1" fill="#fafcfc" d="M -0.5,-0.5 C 107.167,-0.5 214.833,-0.5 322.5,-0.5C 322.5,27.8333 322.5,56.1667 322.5,84.5C 214.833,84.5 107.167,84.5 -0.5,84.5C -0.5,56.1667 -0.5,27.8333 -0.5,-0.5 Z"/></g>
<g><path style="opacity:1" fill="#858688" d="M 8.5,10.5 C 14.3456,9.18341 20.3456,9.18341 26.5,10.5C 26.3764,11.1067 26.0431,11.44 25.5,11.5C 20.0247,10.5111 14.358,10.1778 8.5,10.5 Z"/></g>
<g><path style="opacity:1" fill="#1a1b1d" d="M 270.5,14.5 C 268.167,15.1667 265.833,15.8333 263.5,16.5C 262.519,14.604 261.519,12.604 260.5,10.5C 263.428,9.51592 266.428,9.18259 269.5,9.5C 269.629,11.2161 269.962,12.8828 270.5,14.5 Z"/></g>
<g><path style="opacity:1" fill="#18191c" d="M 308.5,16.5 C 306.833,16.5 305.167,16.5 303.5,16.5C 295.016,15.507 286.349,15.1736 277.5,15.5C 277.869,13.5588 278.536,11.7255 279.5,10C 289.161,9.5002 298.828,9.33353 308.5,9.5C 308.5,11.8333 308.5,14.1667 308.5,16.5 Z"/></g>
<g><path style="opacity:1" fill="#1c1f29" d="M 260.5,20.5 C 259.432,21.4345 258.099,21.7678 256.5,21.5C 256.737,20.209 256.404,19.209 255.5,18.5C 255.288,16.6159 254.288,15.2826 252.5,14.5C 250.389,15.6046 249.055,17.2712 248.5,19.5C 247.167,18.8333 246.167,17.8333 245.5,16.5C 246.455,14.2543 247.122,11.921 247.5,9.5C 250.518,9.33537 253.518,9.50204 256.5,10C 258.254,13.3406 259.587,16.8406 260.5,20.5 Z"/></g>
<g><path style="opacity:1" fill="#444546" d="M 85.5,25.5 C 82.5,25.5 79.5,25.5 76.5,25.5C 76.5,28.8333 76.5,32.1667 76.5,35.5C 75.1752,31.7238 74.5085,27.5572 74.5,23C 70.9154,10.5844 75.2487,6.25108 87.5,10C 93.4555,12.5727 94.9555,16.7394 92,22.5C 90.2658,24.4506 88.0991,25.4506 85.5,25.5 Z"/></g>
<g><path style="opacity:1" fill="#fafbfb" d="M 87.5,12.5 C 90.2856,12.9564 91.619,14.6231 91.5,17.5C 91.6205,21.0425 89.9539,23.0425 86.5,23.5C 83.5,23.5 80.5,23.5 77.5,23.5C 77.5,19.8333 77.5,16.1667 77.5,12.5C 80.8333,12.5 84.1667,12.5 87.5,12.5 Z"/></g>
<g><path style="opacity:1" fill="#111117" d="M 222.5,10.5 C 224.252,12.2459 225.585,14.2459 226.5,16.5C 222.561,16.7409 218.561,16.4075 214.5,15.5C 214.5,13.8333 214.5,12.1667 214.5,10.5C 217.167,10.5 219.833,10.5 222.5,10.5 Z"/></g>
<g><path style="opacity:1" fill="#84868b" d="M 222.5,10.5 C 219.833,10.5 217.167,10.5 214.5,10.5C 214.5,12.1667 214.5,13.8333 214.5,15.5C 214.5,17.1667 214.5,18.8333 214.5,20.5C 214.167,20.5 213.833,20.5 213.5,20.5C 213.5,16.8333 213.5,13.1667 213.5,9.5C 216.713,9.19 219.713,9.52333 222.5,10.5 Z"/></g>
<g><path style="opacity:1" fill="#c3c4c5" d="M 87.5,12.5 C 84.1667,12.5 80.8333,12.5 77.5,12.5C 77.5,16.1667 77.5,19.8333 77.5,23.5C 80.5,23.5 83.5,23.5 86.5,23.5C 83.3752,24.4794 80.0419,24.8128 76.5,24.5C 76.5,20.1667 76.5,15.8333 76.5,11.5C 80.3714,11.185 84.0381,11.5184 87.5,12.5 Z"/></g>
<g><path style="opacity:1" fill="#a9adb4" d="M 303.5,16.5 C 305.167,16.5 306.833,16.5 308.5,16.5C 303.906,16.8651 299.573,17.8651 295.5,19.5C 295.167,19.5 294.833,19.5 294.5,19.5C 294.5,18.5 294.5,17.5 294.5,16.5C 297.5,16.5 300.5,16.5 303.5,16.5 Z"/></g>
<g><path style="opacity:1" fill="#3d3e3e" d="M 45.5,9.5 C 49.9104,9.03072 53.9104,10.0307 57.5,12.5C 56.21,13.4077 54.8767,13.241 53.5,12C 50.8333,11.3333 48.1667,11.3333 45.5,12C 42.8333,14.6667 42.8333,17.3333 45.5,20C 49.9492,21.3122 54.1159,23.1455 58,25.5C 59.8013,32.368 57.1346,35.7013 50,35.5C 46.6153,35.6404 43.6153,34.6404 41,32.5C 40.3123,31.6683 40.479,31.0016 41.5,30.5C 45.8915,34.7052 50.7249,35.3719 56,32.5C 56.4966,30.1902 56.6633,27.8568 56.5,25.5C 51.1854,24.6315 46.3521,22.6315 42,19.5C 41.3333,17.5 41.3333,15.5 42,13.5C 43.3756,12.2949 44.5423,10.9616 45.5,9.5 Z"/></g>
<g><path style="opacity:1" fill="#141a34" d="M 214.5,15.5 C 218.561,16.4075 222.561,16.7409 226.5,16.5C 227.5,16.8333 228.167,17.5 228.5,18.5C 226.533,18.7394 224.699,18.4061 223,17.5C 221.477,19.6201 219.644,19.9535 217.5,18.5C 216.478,18.8555 215.811,19.5222 215.5,20.5C 215.167,20.5 214.833,20.5 214.5,20.5C 214.5,18.8333 214.5,17.1667 214.5,15.5 Z"/></g>
<g><path style="opacity:1" fill="#171f3a" d="M 270.5,14.5 C 271.537,15.9303 272.204,17.597 272.5,19.5C 272.279,22.0972 271.779,22.0972 271,19.5C 268.959,20.4231 266.792,20.7564 264.5,20.5C 263.766,19.2921 263.433,17.9587 263.5,16.5C 265.833,15.8333 268.167,15.1667 270.5,14.5 Z"/></g>
<g><path style="opacity:1" fill="#141f3e" d="M 277.5,15.5 C 286.349,15.1736 295.016,15.507 303.5,16.5C 300.5,16.5 297.5,16.5 294.5,16.5C 294.5,17.5 294.5,18.5 294.5,19.5C 298.5,20.1667 302.5,20.8333 306.5,21.5C 300.231,21.9113 293.897,21.578 287.5,20.5C 287.762,19.0222 287.429,17.6888 286.5,16.5C 285.893,16.6236 285.56,16.9569 285.5,17.5C 285.011,18.9952 284.345,20.3285 283.5,21.5C 283.5,20.5 283.5,19.5 283.5,18.5C 282.5,18.5 281.5,18.5 280.5,18.5C 280.719,19.675 280.386,20.675 279.5,21.5C 278.735,20.3881 277.735,19.7214 276.5,19.5C 276.433,18.0413 276.766,16.7079 277.5,15.5 Z"/></g>
<g><path style="opacity:1" fill="#112557" d="M 228.5,18.5 C 229.167,18.8333 229.833,19.1667 230.5,19.5C 231.206,20.5573 231.539,20.2239 231.5,18.5C 234.622,16.5663 236.955,17.2329 238.5,20.5C 238.5,20.8333 238.5,21.1667 238.5,21.5C 233.299,22.3351 228.132,22.6684 223,22.5C 222.161,21.3759 220.994,20.7092 219.5,20.5C 217.858,21.0495 216.525,21.0495 215.5,20.5C 215.811,19.5222 216.478,18.8555 217.5,18.5C 219.644,19.9535 221.477,19.6201 223,17.5C 224.699,18.4061 226.533,18.7394 228.5,18.5 Z"/></g>
<g><path style="opacity:1" fill="#565656" d="M 9.5,21.5 C 14.544,21.1725 19.544,21.5059 24.5,22.5C 24.3764,23.1067 24.0431,23.44 23.5,23.5C 18.8333,22.8333 14.1667,22.1667 9.5,21.5 Z"/></g>
<g><path style="opacity:1" fill="#c2c8cc" d="M 241.5,25.5 C 241.013,26.4734 240.513,27.4734 240,28.5C 239.503,25.854 239.336,23.1873 239.5,20.5C 239.5,17.1667 239.5,13.8333 239.5,10.5C 236.833,10.5 234.167,10.5 231.5,10.5C 231.5,13.1667 231.5,15.8333 231.5,18.5C 231.539,20.2239 231.206,20.5573 230.5,19.5C 230.5,16.1667 230.5,12.8333 230.5,9.5C 233.833,9.5 237.167,9.5 240.5,9.5C 240.179,15.0262 240.512,20.3595 241.5,25.5 Z"/></g>
<g><path style="opacity:1" fill="#151721" d="M 239.5,20.5 C 239.167,20.5 238.833,20.5 238.5,20.5C 236.955,17.2329 234.622,16.5663 231.5,18.5C 231.5,15.8333 231.5,13.1667 231.5,10.5C 234.167,10.5 236.833,10.5 239.5,10.5C 239.5,13.8333 239.5,17.1667 239.5,20.5 Z"/></g>
<g><path style="opacity:1" fill="#363739" d="M 150.5,9.5 C 153.518,9.33537 156.518,9.50204 159.5,10C 161.555,10.6872 163.221,11.8539 164.5,13.5C 164.333,13.8333 164.167,14.1667 164,14.5C 156.161,9.3982 149.828,10.7315 145,18.5C 143.315,27.1525 146.648,32.4859 155,34.5C 158.487,34.2561 161.487,32.9228 164,30.5C 164.09,32.7681 162.923,34.2681 160.5,35C 147.828,36.6602 141.995,31.1602 143,18.5C 144.642,14.6997 147.142,11.6997 150.5,9.5 Z"/></g>
<g><path style="opacity:1" fill="#083a74" d="M 214.5,20.5 C 214.833,20.5 215.167,20.5 215.5,20.5C 216.525,21.0495 217.858,21.0495 219.5,20.5C 220.994,20.7092 222.161,21.3759 223,22.5C 228.132,22.6684 233.299,22.3351 238.5,21.5C 238.967,24.3795 238.134,26.7129 236,28.5C 232.788,27.2019 229.622,27.2019 226.5,28.5C 225.5,27.1667 224.5,25.8333 223.5,24.5C 220.554,23.2699 217.554,23.2699 214.5,24.5C 214.5,23.1667 214.5,21.8333 214.5,20.5 Z"/></g>
<g><path style="opacity:1" fill="#063571" d="M 287.5,20.5 C 293.897,21.578 300.231,21.9113 306.5,21.5C 306.5,22.5 306.5,23.5 306.5,24.5C 302.298,24.1832 298.298,24.5166 294.5,25.5C 294.5,26.1667 294.5,26.8333 294.5,27.5C 292.236,26.7814 289.903,26.448 287.5,26.5C 287.5,24.5 287.5,22.5 287.5,20.5 Z"/></g>
<g><path style="opacity:1" fill="#203f6b" d="M 245.5,16.5 C 246.167,17.8333 247.167,18.8333 248.5,19.5C 248.893,22.5133 248.226,25.1799 246.5,27.5C 245.842,26.6016 245.176,25.6016 244.5,24.5C 243.571,25.5498 242.905,25.5498 242.5,24.5C 242.733,21.4582 243.733,18.7916 245.5,16.5 Z"/></g>
<g><path style="opacity:1" fill="#193e74" d="M 283.5,21.5 C 283.008,23.8185 282.008,25.8185 280.5,27.5C 275.947,26.5194 271.614,26.5194 267.5,27.5C 266.227,25.2872 265.227,22.9538 264.5,20.5C 266.792,20.7564 268.959,20.4231 271,19.5C 271.779,22.0972 272.279,22.0972 272.5,19.5C 273.151,20.0906 273.818,20.7573 274.5,21.5C 275.182,20.7573 275.849,20.0906 276.5,19.5C 277.735,19.7214 278.735,20.3881 279.5,21.5C 280.386,20.675 280.719,19.675 280.5,18.5C 281.5,18.5 282.5,18.5 283.5,18.5C 283.5,19.5 283.5,20.5 283.5,21.5 Z"/></g>
<g><path style="opacity:1" fill="#202122" d="M 8.5,10.5 C 14.358,10.1778 20.0247,10.5111 25.5,11.5C 20.1667,11.5 14.8333,11.5 9.5,11.5C 9.5,14.8333 9.5,18.1667 9.5,21.5C 14.1667,22.1667 18.8333,22.8333 23.5,23.5C 19.1667,23.5 14.8333,23.5 10.5,23.5C 9.51836,26.9619 9.18503,30.6286 9.5,34.5C 15.0262,34.1786 20.3595,34.5119 25.5,35.5C 19.8333,35.5 14.1667,35.5 8.5,35.5C 8.5,27.1667 8.5,18.8333 8.5,10.5 Z"/></g>
<g><path style="opacity:1" fill="#375377" d="M 294.5,19.5 C 294.833,19.5 295.167,19.5 295.5,19.5C 299.5,19.5 303.5,19.5 307.5,19.5C 307.5,21.5 307.5,23.5 307.5,25.5C 303.167,25.5 298.833,25.5 294.5,25.5C 298.298,24.5166 302.298,24.1832 306.5,24.5C 306.5,23.5 306.5,22.5 306.5,21.5C 302.5,20.8333 298.5,20.1667 294.5,19.5 Z"/></g>
<g><path style="opacity:1" fill="#dee7ec" d="M 255.5,18.5 C 255.337,20.8568 255.503,23.1902 256,25.5C 256.383,26.056 256.883,26.3893 257.5,26.5C 256.239,28.1557 254.906,29.8223 253.5,31.5C 253.752,33.0729 254.418,34.4062 255.5,35.5C 253.215,34.4537 250.882,34.4537 248.5,35.5C 251.339,34.1263 252.006,32.1263 250.5,29.5C 248.517,29.8432 247.183,29.1765 246.5,27.5C 248.226,25.1799 248.893,22.5133 248.5,19.5C 249.055,17.2712 250.389,15.6046 252.5,14.5C 254.288,15.2826 255.288,16.6159 255.5,18.5 Z"/></g>
<g><path style="opacity:1" fill="#1d5088" d="M 255.5,18.5 C 256.404,19.209 256.737,20.209 256.5,21.5C 258.099,21.7678 259.432,21.4345 260.5,20.5C 261.945,22.5707 262.945,24.904 263.5,27.5C 263.38,28.5862 262.713,29.2528 261.5,29.5C 259.959,28.7142 258.626,27.7142 257.5,26.5C 256.883,26.3893 256.383,26.056 256,25.5C 255.503,23.1902 255.337,20.8568 255.5,18.5 Z"/></g>
<g><path style="opacity:1" fill="#1669a3" d="M 223.5,24.5 C 222.532,26.6074 222.198,28.9407 222.5,31.5C 221.596,32.209 221.263,33.209 221.5,34.5C 219.5,34.5 217.5,34.5 215.5,34.5C 214.793,31.2139 214.46,27.8806 214.5,24.5C 217.554,23.2699 220.554,23.2699 223.5,24.5 Z"/></g>
<g><path style="opacity:1" fill="#0e70ad" d="M 238.5,20.5 C 238.833,20.5 239.167,20.5 239.5,20.5C 239.336,23.1873 239.503,25.854 240,28.5C 240.513,27.4734 241.013,26.4734 241.5,25.5C 241.5,24.8333 241.833,24.5 242.5,24.5C 242.905,25.5498 243.571,25.5498 244.5,24.5C 245.176,25.6016 245.842,26.6016 246.5,27.5C 247.183,29.1765 248.517,29.8432 250.5,29.5C 250.406,32.0685 249.072,33.5685 246.5,34C 241.845,34.4992 237.179,34.6658 232.5,34.5C 232.5,33.5 232.5,32.5 232.5,31.5C 231.5,31.5 230.5,31.5 229.5,31.5C 228.167,30.8333 227.167,29.8333 226.5,28.5C 229.622,27.2019 232.788,27.2019 236,28.5C 238.134,26.7129 238.967,24.3795 238.5,21.5C 238.5,21.1667 238.5,20.8333 238.5,20.5 Z"/></g>
<g><path style="opacity:1" fill="#bcbdbf" d="M 85.5,25.5 C 83.0521,26.4731 80.3854,26.8064 77.5,26.5C 77.81,29.7131 77.4767,32.7131 76.5,35.5C 76.5,32.1667 76.5,28.8333 76.5,25.5C 79.5,25.5 82.5,25.5 85.5,25.5 Z"/></g>
<g><path style="opacity:1" fill="#363738" d="M 186.5,9.5 C 201.963,9.79942 206.796,17.1328 201,31.5C 196.483,35.2424 191.316,36.409 185.5,35C 179.412,30.7481 177.246,24.9148 179,17.5C 181.028,14.3078 183.528,11.6411 186.5,9.5 Z"/></g>
<g><path style="opacity:1" fill="#f6f6f6" d="M 186.5,11.5 C 199.129,10.6244 203.963,16.2911 201,28.5C 193.843,36.811 187.176,36.4776 181,27.5C 179.016,20.6603 180.85,15.3269 186.5,11.5 Z"/></g>
<g><path style="opacity:1" fill="#1a7bb6" d="M 280.5,27.5 C 280.259,34.4961 276.592,37.1627 269.5,35.5C 269.416,32.6726 268.75,30.006 267.5,27.5C 271.614,26.5194 275.947,26.5194 280.5,27.5 Z"/></g>
<g><path style="opacity:1" fill="#227cb5" d="M 285.5,17.5 C 285.56,16.9569 285.893,16.6236 286.5,16.5C 287.429,17.6888 287.762,19.0222 287.5,20.5C 287.5,22.5 287.5,24.5 287.5,26.5C 289.903,26.448 292.236,26.7814 294.5,27.5C 298.97,28.4861 303.637,28.8195 308.5,28.5C 308.5,30.8333 308.5,33.1667 308.5,35.5C 301.167,35.5 293.833,35.5 286.5,35.5C 286.823,29.31 286.49,23.31 285.5,17.5 Z"/></g>
<g><path style="opacity:1" fill="#2384be" d="M 257.5,26.5 C 258.626,27.7142 259.959,28.7142 261.5,29.5C 262.713,29.2528 263.38,28.5862 263.5,27.5C 265.585,29.6845 266.585,32.3511 266.5,35.5C 262.833,35.5 259.167,35.5 255.5,35.5C 254.418,34.4062 253.752,33.0729 253.5,31.5C 254.906,29.8223 256.239,28.1557 257.5,26.5 Z"/></g>
<g><path style="opacity:1" fill="#787a7c" d="M 10.5,23.5 C 10.5,26.8333 10.5,30.1667 10.5,33.5C 15.8746,33.1718 21.2079,33.5052 26.5,34.5C 26.3764,35.1067 26.0431,35.44 25.5,35.5C 20.3595,34.5119 15.0262,34.1786 9.5,34.5C 9.18503,30.6286 9.51836,26.9619 10.5,23.5 Z"/></g>
<g><path style="opacity:1" fill="#3c3e3e" d="M 116.5,10.5 C 117.675,10.281 118.675,10.6143 119.5,11.5C 123.582,19.2672 126.749,27.2672 129,35.5C 125.333,27.8333 121.667,20.1667 118,12.5C 114.558,19.7169 111.391,27.0502 108.5,34.5C 107.833,35.8333 107.167,35.8333 106.5,34.5C 110.035,26.5571 113.368,18.5571 116.5,10.5 Z"/></g>
<g><path style="opacity:1" fill="#599dc4" d="M 213.5,20.5 C 213.833,20.5 214.167,20.5 214.5,20.5C 214.5,21.8333 214.5,23.1667 214.5,24.5C 214.46,27.8806 214.793,31.2139 215.5,34.5C 217.5,34.5 219.5,34.5 221.5,34.5C 221.263,33.209 221.596,32.209 222.5,31.5C 222.5,32.8333 222.5,34.1667 222.5,35.5C 219.5,35.5 216.5,35.5 213.5,35.5C 213.5,30.5 213.5,25.5 213.5,20.5 Z"/></g>
<g><path style="opacity:1" fill="#3890c0" d="M 250.5,29.5 C 252.006,32.1263 251.339,34.1263 248.5,35.5C 242.824,35.6661 237.157,35.4994 231.5,35C 230.695,33.8873 230.028,32.7206 229.5,31.5C 230.5,31.5 231.5,31.5 232.5,31.5C 232.5,32.5 232.5,33.5 232.5,34.5C 237.179,34.6658 241.845,34.4992 246.5,34C 249.072,33.5685 250.406,32.0685 250.5,29.5 Z"/></g>
<g><path style="opacity:1" fill="#515153" d="M 151.5,38.5 C 154.572,38.1826 157.572,38.5159 160.5,39.5C 159,39.8333 157.5,40.1667 156,40.5C 154.014,40.4313 152.514,39.7647 151.5,38.5 Z"/></g>
<g><path style="opacity:1" fill="#e1f5fa" d="M 13.5,63.5 C 11.8325,61.5214 11.1658,59.188 11.5,56.5C 13.8227,53.0333 16.4894,52.6999 19.5,55.5C 17.9547,56.4519 16.288,56.7852 14.5,56.5C 14.5,57.8333 14.5,59.1667 14.5,60.5C 16.604,60.2011 18.604,60.5344 20.5,61.5C 20.2907,62.086 19.9574,62.586 19.5,63C 17.5273,63.4955 15.5273,63.6621 13.5,63.5 Z"/></g>
<g><path style="opacity:1" fill="#149ede" d="M 33.5,47.5 C 33.3691,48.3764 33.7025,49.0431 34.5,49.5C 55.4743,48.1884 76.4743,48.1884 97.5,49.5C 98.5,49.8333 99.5,50.1667 100.5,50.5C 99.5614,54.7649 99.2281,59.0983 99.5,63.5C 100.5,63.5 101.5,63.5 102.5,63.5C 104.167,63.5 105.833,63.5 107.5,63.5C 109.339,61.367 110.339,58.7004 110.5,55.5C 110.392,54.5581 110.059,53.7247 109.5,53C 107.744,52.7978 106.078,52.2978 104.5,51.5C 110.197,50.6413 115.864,49.6413 121.5,48.5C 121.5,49.5 121.5,50.5 121.5,51.5C 120.64,55.4338 120.307,59.4338 120.5,63.5C 122.833,63.5 125.167,63.5 127.5,63.5C 128.833,63.5 130.167,63.5 131.5,63.5C 132.5,63.5 133.5,63.5 134.5,63.5C 134.281,62.325 134.614,61.325 135.5,60.5C 137.071,62.415 139.071,63.415 141.5,63.5C 141.5,60.1667 141.5,56.8333 141.5,53.5C 137.03,52.5139 132.363,52.1805 127.5,52.5C 127.64,50.8762 126.973,49.7096 125.5,49C 127.568,48.3131 129.568,48.4798 131.5,49.5C 132.298,49.0431 132.631,48.3764 132.5,47.5C 156.833,47.5 181.167,47.5 205.5,47.5C 205.611,48.1174 205.944,48.6174 206.5,49C 209.817,49.4983 213.15,49.665 216.5,49.5C 215.551,51.7373 214.884,54.0706 214.5,56.5C 212.61,56.7035 211.11,56.0368 210,54.5C 209.781,55.938 209.281,57.2713 208.5,58.5C 207.065,57.0531 206.065,55.3864 205.5,53.5C 204.5,53.5 203.5,53.5 202.5,53.5C 202.5,56.8333 202.5,60.1667 202.5,63.5C 204.948,64.529 207.614,65.1957 210.5,65.5C 212.472,64.8433 214.305,64.8433 216,65.5C 217.38,64.7445 217.547,64.0778 216.5,63.5C 217.833,62.1667 219.167,62.1667 220.5,63.5C 225.833,64.8333 231.167,64.8333 236.5,63.5C 237.069,59.6707 236.402,56.3373 234.5,53.5C 233.766,52.2921 233.433,50.9587 233.5,49.5C 244.385,49.6122 255.051,49.6122 265.5,49.5C 265.778,51.3464 265.111,52.6798 263.5,53.5C 259.5,52.8333 255.5,52.1667 251.5,51.5C 247.571,52.4328 243.571,52.7662 239.5,52.5C 239.187,56.0419 239.521,59.3752 240.5,62.5C 243.024,63.8003 245.691,63.8003 248.5,62.5C 247.873,61.5832 247.539,60.5832 247.5,59.5C 249.045,58.7703 249.878,57.437 250,55.5C 250.383,56.056 250.883,56.3893 251.5,56.5C 252.108,57.7997 252.775,59.1331 253.5,60.5C 251.893,62.6425 252.227,64.3092 254.5,65.5C 259.002,65.9278 263.502,65.2611 268,63.5C 269.356,64.3802 270.856,64.7135 272.5,64.5C 272.737,63.209 272.404,62.209 271.5,61.5C 271.167,60.1667 270.833,58.8333 270.5,57.5C 270.425,54.7938 270.092,52.1272 269.5,49.5C 273.146,50.2834 276.812,50.4501 280.5,50C 281.252,49.3292 281.586,48.4959 281.5,47.5C 282.833,47.5 284.167,47.5 285.5,47.5C 286.919,48.4511 288.585,48.7845 290.5,48.5C 290.5,49.5 290.5,50.5 290.5,51.5C 289.07,51.4208 287.736,51.7542 286.5,52.5C 285.833,51.8333 285.167,51.1667 284.5,50.5C 281.444,52.2892 278.111,52.9559 274.5,52.5C 274.185,56.3714 274.518,60.0381 275.5,63.5C 276.765,64.4793 278.099,65.4793 279.5,66.5C 281.179,64.8955 283.179,64.2289 285.5,64.5C 285.18,61.1016 285.513,57.7683 286.5,54.5C 287.167,57.6417 287.834,60.6417 288.5,63.5C 289.5,63.5 290.5,63.5 291.5,63.5C 292.166,59.6475 292.833,55.6475 293.5,51.5C 294.863,50.1207 295.863,50.2874 296.5,52C 294.573,55.2379 294.073,58.7379 295,62.5C 295.671,63.2524 296.504,63.5858 297.5,63.5C 300.776,63.856 303.443,62.856 305.5,60.5C 306.139,59.9032 306.472,59.0698 306.5,58C 305.291,55.6808 304.458,53.1808 304,50.5C 303.667,50.8333 303.333,51.1667 303,51.5C 302.097,50.2986 300.931,49.4652 299.5,49C 302.146,48.5026 304.813,48.3359 307.5,48.5C 307.5,55.1667 307.5,61.8333 307.5,68.5C 208.167,68.5 108.833,68.5 9.5,68.5C 9.2011,66.396 9.53443,64.396 10.5,62.5C 11.4168,63.1272 12.4168,63.4606 13.5,63.5C 15.5273,63.6621 17.5273,63.4955 19.5,63C 19.9574,62.586 20.2907,62.086 20.5,61.5C 18.604,60.5344 16.604,60.2011 14.5,60.5C 14.5,59.1667 14.5,57.8333 14.5,56.5C 16.288,56.7852 17.9547,56.4519 19.5,55.5C 16.4894,52.6999 13.8227,53.0333 11.5,56.5C 10.7777,57.5511 9.77765,58.2178 8.5,58.5C 8.21083,54.8936 8.54416,51.3936 9.5,48C 17.4931,47.5003 25.4931,47.3336 33.5,47.5 Z"/></g>
<g><path style="opacity:1" fill="#d7eef4" d="M 38.5,53.5 C 42.9225,52.4249 44.9225,54.0916 44.5,58.5C 44.4493,60.0998 44.1159,61.5998 43.5,63C 41.5273,63.4955 39.5273,63.6621 37.5,63.5C 37.2529,60.0613 37.5863,56.728 38.5,53.5 Z"/></g>
<g><path style="opacity:1" fill="#e6f6f9" d="M 270.5,57.5 C 270.833,58.8333 271.167,60.1667 271.5,61.5C 271.631,62.3764 271.298,63.0431 270.5,63.5C 268.167,60.8333 265.833,60.8333 263.5,63.5C 263.022,59.0735 264.355,55.0735 267.5,51.5C 268.208,53.7451 269.208,55.7451 270.5,57.5 Z"/></g>
<g><path style="opacity:1" fill="#dff3f7" d="M 167.5,53.5 C 168.833,53.5 170.167,53.5 171.5,53.5C 171.949,56.641 172.949,59.641 174.5,62.5C 174,62.8333 173.5,63.1667 173,63.5C 171.908,62.7039 170.741,62.0372 169.5,61.5C 167.944,62.5471 166.277,63.2137 164.5,63.5C 165.099,60.0369 166.099,56.7036 167.5,53.5 Z"/></g>
<g><path style="opacity:1" fill="#ddf1f5" d="M 83.5,53.5 C 84.8333,53.5 86.1667,53.5 87.5,53.5C 88.199,56.5729 89.199,59.5729 90.5,62.5C 90,62.8333 89.5,63.1667 89,63.5C 86.1039,62.8035 83.2706,62.4702 80.5,62.5C 81.3498,59.4273 82.3498,56.4273 83.5,53.5 Z"/></g>
<g><path style="opacity:1" fill="#e4f4f9" d="M 51.5,53.5 C 52.8221,53.33 53.9887,53.6634 55,54.5C 55.869,57.3303 57.0357,59.997 58.5,62.5C 58,62.8333 57.5,63.1667 57,63.5C 53.8367,62.542 50.6701,62.3753 47.5,63C 49.5146,60.0922 50.848,56.9256 51.5,53.5 Z"/></g>
<g><path style="opacity:1" fill="#d6eff5" d="M 191.5,53.5 C 200.721,54.0671 201.721,57.0671 194.5,62.5C 193.311,63.4287 191.978,63.762 190.5,63.5C 190.253,60.0613 190.586,56.728 191.5,53.5 Z"/></g>
<g><path style="opacity:1" fill="#cdf0fc" d="M 157.5,53.5 C 158.5,53.5 159.5,53.5 160.5,53.5C 160.5,56.8333 160.5,60.1667 160.5,63.5C 159.5,63.5 158.5,63.5 157.5,63.5C 157.5,60.1667 157.5,56.8333 157.5,53.5 Z"/></g>
<g><path style="opacity:1" fill="#d5edf5" d="M 141.5,53.5 C 141.5,56.8333 141.5,60.1667 141.5,63.5C 139.071,63.415 137.071,62.415 135.5,60.5C 134.614,61.325 134.281,62.325 134.5,63.5C 133.5,63.5 132.5,63.5 131.5,63.5C 131.5,60.1667 131.5,56.8333 131.5,53.5C 133.903,53.393 135.736,54.393 137,56.5C 137.589,54.1367 139.089,53.1367 141.5,53.5 Z"/></g>
<g><path style="opacity:1" fill="#e5f5f8" d="M 31.5,55.5 C 32.6392,58.0037 33.3059,60.6703 33.5,63.5C 31.8002,63.3739 30.3002,62.7073 29,61.5C 27.6667,62.1667 26.3333,62.8333 25,63.5C 23.9701,63.1639 23.4701,62.4972 23.5,61.5C 24.9334,59.4809 26.2668,57.3143 27.5,55C 28.9285,54.4209 30.2618,54.5876 31.5,55.5 Z"/></g>
<g><path style="opacity:1" fill="#5eb5d4" d="M 31.5,55.5 C 30.2618,54.5876 28.9285,54.4209 27.5,55C 26.2668,57.3143 24.9334,59.4809 23.5,61.5C 23.3069,58.5253 24.3069,56.0253 26.5,54C 27.3333,53.8333 28.1667,53.6667 29,53.5C 30.3756,53.6842 31.2089,54.3509 31.5,55.5 Z"/></g>
<g><path style="opacity:1" fill="#def5fa" d="M 205.5,53.5 C 205.5,56.1667 205.5,58.8333 205.5,61.5C 206.978,61.238 208.311,61.5713 209.5,62.5C 207.257,63.4742 204.924,63.8076 202.5,63.5C 202.5,60.1667 202.5,56.8333 202.5,53.5C 203.5,53.5 204.5,53.5 205.5,53.5 Z"/></g>
<g><path style="opacity:1" fill="#e3f5fb" d="M 68.5,53.5 C 73.1455,52.4163 76.1455,54.0829 77.5,58.5C 76.1455,62.9171 73.1455,64.5837 68.5,63.5C 68.5,60.1667 68.5,56.8333 68.5,53.5 Z"/></g>
<g><path style="opacity:1" fill="#d9f4f8" d="M 146.5,53.5 C 149.157,53.162 151.49,53.8287 153.5,55.5C 151.955,56.4519 150.288,56.7852 148.5,56.5C 148.5,57.8333 148.5,59.1667 148.5,60.5C 150.288,60.2148 151.955,60.5481 153.5,61.5C 150.454,64.2661 147.621,63.9328 145,60.5C 144.4,57.9047 144.9,55.5713 146.5,53.5 Z"/></g>
<g><path style="opacity:1" fill="#33a4d7" d="M 33.5,47.5 C 66.5,47.5 99.5,47.5 132.5,47.5C 132.631,48.3764 132.298,49.0431 131.5,49.5C 129.568,48.4798 127.568,48.3131 125.5,49C 126.973,49.7096 127.64,50.8762 127.5,52.5C 132.363,52.1805 137.03,52.5139 141.5,53.5C 139.089,53.1367 137.589,54.1367 137,56.5C 135.736,54.393 133.903,53.393 131.5,53.5C 131.5,56.8333 131.5,60.1667 131.5,63.5C 130.167,63.5 128.833,63.5 127.5,63.5C 126.322,62.0014 124.655,61.0014 122.5,60.5C 124.167,59.8333 125.833,59.1667 127.5,58.5C 122.343,57.0133 122.676,56.3466 128.5,56.5C 127.82,52.678 125.487,51.0114 121.5,51.5C 121.5,50.5 121.5,49.5 121.5,48.5C 115.864,49.6413 110.197,50.6413 104.5,51.5C 106.078,52.2978 107.744,52.7978 109.5,53C 110.059,53.7247 110.392,54.5581 110.5,55.5C 110.339,58.7004 109.339,61.367 107.5,63.5C 107.804,62.8501 108.137,62.1835 108.5,61.5C 106.955,60.5481 105.288,60.2148 103.5,60.5C 103.5,59.1667 103.5,57.8333 103.5,56.5C 105.288,56.7852 106.955,56.4519 108.5,55.5C 106.085,52.8717 103.585,52.8717 101,55.5C 100.282,58.4071 100.782,61.0738 102.5,63.5C 101.5,63.5 100.5,63.5 99.5,63.5C 99.2281,59.0983 99.5614,54.7649 100.5,50.5C 99.5,50.1667 98.5,49.8333 97.5,49.5C 76.4743,48.1884 55.4743,48.1884 34.5,49.5C 33.7025,49.0431 33.3691,48.3764 33.5,47.5 Z"/></g>
<g><path style="opacity:1" fill="#e0f7fb" d="M 107.5,63.5 C 105.833,63.5 104.167,63.5 102.5,63.5C 100.782,61.0738 100.282,58.4071 101,55.5C 103.585,52.8717 106.085,52.8717 108.5,55.5C 106.955,56.4519 105.288,56.7852 103.5,56.5C 103.5,57.8333 103.5,59.1667 103.5,60.5C 105.288,60.2148 106.955,60.5481 108.5,61.5C 108.137,62.1835 107.804,62.8501 107.5,63.5 Z"/></g>
<g><path style="opacity:1" fill="#e1f4f5" d="M 121.5,51.5 C 125.487,51.0114 127.82,52.678 128.5,56.5C 122.676,56.3466 122.343,57.0133 127.5,58.5C 125.833,59.1667 124.167,59.8333 122.5,60.5C 124.655,61.0014 126.322,62.0014 127.5,63.5C 125.167,63.5 122.833,63.5 120.5,63.5C 120.307,59.4338 120.64,55.4338 121.5,51.5 Z"/></g>
<g><path style="opacity:1" fill="#8fd4ee" d="M 115.5,63.5 C 114.833,51.5 114.167,51.5 113.5,63.5C 112.521,60.3752 112.187,57.0419 112.5,53.5C 113.833,53.5 115.167,53.5 116.5,53.5C 116.813,57.0419 116.479,60.3752 115.5,63.5 Z"/></g>
<g><path style="opacity:1" fill="#ebfbfb" d="M 115.5,63.5 C 114.833,63.5 114.167,63.5 113.5,63.5C 114.167,51.5 114.833,51.5 115.5,63.5 Z"/></g>
<g><path style="opacity:1" fill="#2aa2da" d="M 205.5,47.5 C 230.833,47.5 256.167,47.5 281.5,47.5C 281.586,48.4959 281.252,49.3292 280.5,50C 276.812,50.4501 273.146,50.2834 269.5,49.5C 270.092,52.1272 270.425,54.7938 270.5,57.5C 269.208,55.7451 268.208,53.7451 267.5,51.5C 264.355,55.0735 263.022,59.0735 263.5,63.5C 265.833,60.8333 268.167,60.8333 270.5,63.5C 271.298,63.0431 271.631,62.3764 271.5,61.5C 272.404,62.209 272.737,63.209 272.5,64.5C 270.856,64.7135 269.356,64.3802 268,63.5C 263.502,65.2611 259.002,65.9278 254.5,65.5C 252.227,64.3092 251.893,62.6425 253.5,60.5C 252.775,59.1331 252.108,57.7997 251.5,56.5C 250.883,56.3893 250.383,56.056 250,55.5C 249.878,57.437 249.045,58.7703 247.5,59.5C 247.833,57.5 248.167,55.5 248.5,53.5C 245.833,53.5 243.167,53.5 240.5,53.5C 240.5,56.5 240.5,59.5 240.5,62.5C 239.521,59.3752 239.187,56.0419 239.5,52.5C 243.571,52.7662 247.571,52.4328 251.5,51.5C 255.5,52.1667 259.5,52.8333 263.5,53.5C 265.111,52.6798 265.778,51.3464 265.5,49.5C 255.051,49.6122 244.385,49.6122 233.5,49.5C 233.433,50.9587 233.766,52.2921 234.5,53.5C 233.839,54.7175 233.172,56.0508 232.5,57.5C 231.614,56.675 231.281,55.675 231.5,54.5C 230.167,54.5 228.833,54.5 227.5,54.5C 227.183,57.5719 227.516,60.5719 228.5,63.5C 229.676,58.4217 231.343,58.255 233.5,63C 234.448,63.4828 235.448,63.6495 236.5,63.5C 231.167,64.8333 225.833,64.8333 220.5,63.5C 221.675,63.719 222.675,63.3857 223.5,62.5C 220.015,50.6647 216.682,50.6647 213.5,62.5C 214.325,63.3857 215.325,63.719 216.5,63.5C 217.547,64.0778 217.38,64.7445 216,65.5C 214.305,64.8433 212.472,64.8433 210.5,65.5C 207.614,65.1957 204.948,64.529 202.5,63.5C 204.924,63.8076 207.257,63.4742 209.5,62.5C 208.311,61.5713 206.978,61.238 205.5,61.5C 205.5,58.8333 205.5,56.1667 205.5,53.5C 206.065,55.3864 207.065,57.0531 208.5,58.5C 209.281,57.2713 209.781,55.938 210,54.5C 211.11,56.0368 212.61,56.7035 214.5,56.5C 214.884,54.0706 215.551,51.7373 216.5,49.5C 213.15,49.665 209.817,49.4983 206.5,49C 205.944,48.6174 205.611,48.1174 205.5,47.5 Z"/></g>
<g><path style="opacity:1" fill="#d2eef3" d="M 247.5,59.5 C 247.539,60.5832 247.873,61.5832 248.5,62.5C 245.691,63.8003 243.024,63.8003 240.5,62.5C 240.5,59.5 240.5,56.5 240.5,53.5C 243.167,53.5 245.833,53.5 248.5,53.5C 248.167,55.5 247.833,57.5 247.5,59.5 Z"/></g>
<g><path style="opacity:1" fill="#def2f6" d="M 220.5,63.5 C 219.167,62.1667 217.833,62.1667 216.5,63.5C 215.325,63.719 214.325,63.3857 213.5,62.5C 216.682,50.6647 220.015,50.6647 223.5,62.5C 222.675,63.3857 221.675,63.719 220.5,63.5 Z"/></g>
<g><path style="opacity:1" fill="#e7f5f8" d="M 234.5,53.5 C 236.402,56.3373 237.069,59.6707 236.5,63.5C 235.448,63.6495 234.448,63.4828 233.5,63C 231.343,58.255 229.676,58.4217 228.5,63.5C 227.516,60.5719 227.183,57.5719 227.5,54.5C 228.833,54.5 230.167,54.5 231.5,54.5C 231.281,55.675 231.614,56.675 232.5,57.5C 233.172,56.0508 233.839,54.7175 234.5,53.5 Z"/></g>
<g><path style="opacity:1" fill="#def3fb" d="M 251.5,56.5 C 251.5,55.5 251.5,54.5 251.5,53.5C 254.5,53.5 257.5,53.5 260.5,53.5C 260.5,54.5 260.5,55.5 260.5,56.5C 259.5,56.5 258.5,56.5 257.5,56.5C 257.5,58.8333 257.5,61.1667 257.5,63.5C 256.5,63.5 255.5,63.5 254.5,63.5C 254.5,61.1667 254.5,58.8333 254.5,56.5C 253.5,56.5 252.5,56.5 251.5,56.5 Z"/></g>
<g><path style="opacity:1" fill="#37a3d3" d="M 285.5,47.5 C 293.167,47.5 300.833,47.5 308.5,47.5C 308.5,54.8333 308.5,62.1667 308.5,69.5C 208.5,69.5 108.5,69.5 8.5,69.5C 8.5,65.8333 8.5,62.1667 8.5,58.5C 9.77765,58.2178 10.7777,57.5511 11.5,56.5C 11.1658,59.188 11.8325,61.5214 13.5,63.5C 12.4168,63.4606 11.4168,63.1272 10.5,62.5C 9.53443,64.396 9.2011,66.396 9.5,68.5C 108.833,68.5 208.167,68.5 307.5,68.5C 307.5,61.8333 307.5,55.1667 307.5,48.5C 304.813,48.3359 302.146,48.5026 299.5,49C 300.931,49.4652 302.097,50.2986 303,51.5C 303.333,51.1667 303.667,50.8333 304,50.5C 304.458,53.1808 305.291,55.6808 306.5,58C 306.472,59.0698 306.139,59.9032 305.5,60.5C 305.356,55.1872 302.69,53.0206 297.5,54C 294.888,57.1641 294.888,60.3307 297.5,63.5C 296.504,63.5858 295.671,63.2524 295,62.5C 294.073,58.7379 294.573,55.2379 296.5,52C 295.863,50.2874 294.863,50.1207 293.5,51.5C 292.833,55.6475 292.166,59.6475 291.5,63.5C 291.5,60.1667 291.5,56.8333 291.5,53.5C 290.5,53.5 289.5,53.5 288.5,53.5C 288.5,56.8333 288.5,60.1667 288.5,63.5C 287.834,60.6417 287.167,57.6417 286.5,54.5C 285.513,57.7683 285.18,61.1016 285.5,64.5C 283.179,64.2289 281.179,64.8955 279.5,66.5C 278.099,65.4793 276.765,64.4793 275.5,63.5C 274.518,60.0381 274.185,56.3714 274.5,52.5C 278.111,52.9559 281.444,52.2892 284.5,50.5C 285.167,51.1667 285.833,51.8333 286.5,52.5C 287.736,51.7542 289.07,51.4208 290.5,51.5C 290.5,50.5 290.5,49.5 290.5,48.5C 288.585,48.7845 286.919,48.4511 285.5,47.5 Z"/></g>
<g><path style="opacity:1" fill="#d6f3fb" d="M 291.5,63.5 C 290.5,63.5 289.5,63.5 288.5,63.5C 288.5,60.1667 288.5,56.8333 288.5,53.5C 289.5,53.5 290.5,53.5 291.5,53.5C 291.5,56.8333 291.5,60.1667 291.5,63.5 Z"/></g>
<g><path style="opacity:1" fill="#449acc" d="M 71.5,56.5 C 72.5,56.5 73.5,56.5 74.5,56.5C 74.5,57.8333 74.5,59.1667 74.5,60.5C 73.5,60.5 72.5,60.5 71.5,60.5C 71.5,59.1667 71.5,57.8333 71.5,56.5 Z"/></g>
<g><path style="opacity:1" fill="#e9fcfd" d="M 180.5,56.5 C 181.5,56.5 182.5,56.5 183.5,56.5C 183.5,57.8333 183.5,59.1667 183.5,60.5C 182.5,60.5 181.5,60.5 180.5,60.5C 180.5,59.1667 180.5,57.8333 180.5,56.5 Z"/></g>
<g><path style="opacity:1" fill="#e0f4fa" d="M 305.5,60.5 C 303.443,62.856 300.776,63.856 297.5,63.5C 294.888,60.3307 294.888,57.1641 297.5,54C 302.69,53.0206 305.356,55.1872 305.5,60.5 Z"/></g>
<g><path style="opacity:1" fill="#3e9dc3" d="M 298.5,56.5 C 301.5,56.1667 302.833,57.5 302.5,60.5C 301.167,60.5 299.833,60.5 298.5,60.5C 298.5,59.1667 298.5,57.8333 298.5,56.5 Z"/></g>
<g><path style="opacity:1" fill="#d4eff6" d="M 275.5,63.5 C 275.5,60.1667 275.5,56.8333 275.5,53.5C 278.685,53.0196 281.519,53.6863 284,55.5C 283.952,57.926 284.119,60.2593 284.5,62.5C 282.182,63.8344 280.515,63.1677 279.5,60.5C 278.614,61.325 278.281,62.325 278.5,63.5C 277.5,63.5 276.5,63.5 275.5,63.5 Z"/></g>
</svg>
